# xmcd
# 
# Track frame offsets:
#     150
#     14100
#     28691
#     41331
#     54817
#     71314
#     84481
#     96952
#     110701
#     123345
#     146650
#     158959
# 
# Disc length: 2282
# 
# Revision: 2
# Processed by: cddbd v1.5.2PL0 Copyright (c) Steve Scherf et al.
# Submitted via: fre:ac v1.1beta1pre5
# 
DISCID=9d08e80c
DTITLE=Various Artist - Summertime Blues [CD2]
DYEAR=2001
DGENRE=Blues
TTITLE0=Jimmy Witherspoon - How Long Blues
TTITLE1=Sonny Terry and Brownie McGhee - Down By The Riverside
TTITLE2=Sonny Boy Williamson - Little Low Woman Blues
TTITLE3=John Lee Hooker - Heart Trouble Blues
TTITLE4=Memphis Slim - Just Let Me Be
TTITLE5=Lowell Fulson - Country Boy Blues
TTITLE6=Champion Jack Dupree - Shim Sham Shimmy
TTITLE7=Lightnin' Hopkins - Mojo Hand
TTITLE8=Joe Turner - Sun Risin' Blues
TTITLE9=Howlin' Wolf - Rockin' The Blues
TTITLE10=Lonnie Johnson - Noyhing But Trouble
TTITLE11=Big Bill Broonzy - Black, White And Brown
EXTD=YEAR: 2001 ID3G: 0
EXTT0=
EXTT1=
EXTT2=
EXTT3=
EXTT4=
EXTT5=
EXTT6=
EXTT7=
EXTT8=
EXTT9=
EXTT10=
EXTT11=
PLAYORDER=
